[2026-03-03T20:17:45.792Z] Pipeline started.
[2026-03-03T20:17:46.598Z] Downloading YouTube: https://youtube.com/shorts/sbqu-Bw61Rs?si=Nn4xez_KJv-rjCSm
[2026-03-03T20:18:05.410Z] ElevenLabs TTS seg 0 [21m00Tcm4TlvDq8ikWAM]: "要改变生活方式吗？"
[2026-03-03T20:18:06.886Z] Seg 0 done (34316 bytes) ✅
[2026-03-03T20:18:07.123Z] ElevenLabs TTS seg 1 [21m00Tcm4TlvDq8ikWAM]: "你看起来不像在买很贵的衣服。"
[2026-03-03T20:18:08.324Z] Seg 1 done (44347 bytes) ✅
[2026-03-03T20:18:08.555Z] ElevenLabs TTS seg 2 [21m00Tcm4TlvDq8ikWAM]: "不，我不是在买很贵的衣服。"
[2026-03-03T20:18:09.696Z] Seg 2 done (40586 bytes) ✅
[2026-03-03T20:18:09.941Z] ElevenLabs TTS seg 3 [21m00Tcm4TlvDq8ikWAM]: "你在买东西吗？你在买你需要的东西吗？"
[2026-03-03T20:18:11.158Z] Seg 3 done (51453 bytes) ✅
[2026-03-03T20:18:11.440Z] ElevenLabs TTS seg 4 [21m00Tcm4TlvDq8ikWAM]: "不，我只有一个小的一卧室公寓，地板上有一张床垫。"
[2026-03-03T20:18:12.831Z] Seg 4 done (74440 bytes) ✅
[2026-03-03T20:18:13.123Z] ElevenLabs TTS seg 5 [21m00Tcm4TlvDq8ikWAM]: "就是那里，我住的地方。"
[2026-03-03T20:18:14.229Z] Seg 5 done (38078 bytes) ✅
[2026-03-03T20:18:14.474Z] Running FFmpeg: C:\Users\fullm\Downloads\dubverse-saas\backend\node_modules\ffmpeg-static\ffmpeg.exe -i C:\Users\fullm\Downloads\dubverse-saas\tmp\uploads\efb40add-9573-4c8c-b00a-c86a73167380\audio.mp3 -i C:\Users\fullm\Downloads\dubverse-saas\tmp\uploads\efb40add-9573-4c8c-b00a-c86a73167380\segments\seg_0.mp3 -i C:\Users\fullm\Downloads\dubverse-saas\tmp\uploads\efb40add-9573-4c8c-b00a-c86a73167380\segments\seg_1.mp3 -i C:\Users\fullm\Downloads\dubverse-saas\tmp\uploads\efb40add-9573-4c8c-b00a-c86a73167380\segments\seg_2.mp3 -i C:\Users\fullm\Downloads\dubverse-saas\tmp\uploads\efb40add-9573-4c8c-b00a-c86a73167380\segments\seg_3.mp3 -i C:\Users\fullm\Downloads\dubverse-saas\tmp\uploads\efb40add-9573-4c8c-b00a-c86a73167380\segments\seg_4.mp3 -i C:\Users\fullm\Downloads\dubverse-saas\tmp\uploads\efb40add-9573-4c8c-b00a-c86a73167380\segments\seg_5.mp3 -filter_complex [1:a]aformat=sample_rates=44100:channel_layouts=stereo,adelay=0|0[s0];[2:a]aformat=sample_rates=44100:channel_layouts=stereo,adelay=1200|1200[s1];[3:a]aformat=sample_rates=44100:channel_layouts=stereo,adelay=4000|4000[s2];[4:a]aformat=sample_rates=44100:channel_layouts=stereo,adelay=6200|6200[s3];[5:a]aformat=sample_rates=44100:channel_layouts=stereo,adelay=9000|9000[s4];[6:a]aformat=sample_rates=44100:channel_layouts=stereo,adelay=13700|13700[s5];[0:a]aformat=sample_rates=44100:channel_layouts=stereo,volume=0.12[bg];[bg][s0][s1][s2][s3][s4][s5]amix=inputs=7:duration=first:dropout_transition=2,volume=7[mixed];[mixed]loudnorm=I=-23:TP=-1.5:LRA=11[out] -map [out] -acodec libmp3lame -ar 44100 -b:a 192k -y C:\Users\fullm\Downloads\dubverse-saas\tmp\uploads\efb40add-9573-4c8c-b00a-c86a73167380\dubbed_audio.mp3
[2026-03-03T20:18:14.701Z] FFmpeg Err: Input #0, mp3, from 'C:\Users\fullm\Downloads\dubverse-saas\tmp\uploads\efb40add-9573-4c8c-b00a-c86a73167380\audio.mp3':
  Metadata:
    major_brand     : mp42
    minor_version   : 0
    compatible_brands: isommp42
    encoder         : Lavf60.16.100
  Duration: 00:00:15.33, start: 0.025057, bitrate: 128 kb/s
  Stream #0:0: Audio: mp3, 44100 Hz, stereo, fltp, 128 kb/s
    Metadata:
      encoder         : Lavc60.31

[2026-03-03T20:18:14.704Z] FFmpeg Err: Input #1, mp3, from 'C:\Users\fullm\Downloads\dubverse-saas\tmp\uploads\efb40add-9573-4c8c-b00a-c86a73167380\segments\seg_0.mp3':
  Metadata:
    encoder         : Lavf60.16.100
  Duration: 00:00:02.12, start: 0.025057, bitrate: 64 kb/s
  Stream #1:0: Audio: mp3, 44100 Hz, mono, fltp, 64 kb/s
Input #2, mp3, from 'C:\Users\fullm\Downloads\dubverse-saas\tmp\uploads\efb40add-9573-4c8c-b00a-c86a73167380\segments\seg_1.mp3':
  Metadata:
    encoder         : Lavf60.16.100
  Duration: 00:00:02.74, start: 0.025057, bitrate: 64 kb/s
  Stream #2:0: Audio: mp3, 44100 Hz, mono, fltp, 64 kb/s
Input #3, mp3, from 'C:\Users\fullm\Downloads\dubverse-saas\tmp\uploads\efb40add-9573-4c8c-b00a-c86a73167380\segments\seg_2.mp3':
  Metadata:
    encoder         : Lavf60.16.100
  Duration: 00:00:02.51, start: 0.025057, bitrate: 64 kb/s
  Stream #3:0: Audio: mp3, 44100 Hz, mono, fltp, 64 kb/s

[2026-03-03T20:18:14.707Z] FFmpeg Err: Input #4, mp3, from 'C:\Users\fullm\Downloads\dubverse-saas\tmp\uploads\efb40add-9573-4c8c-b00a-c86a73167380\segments\seg_3.mp3':
  Metadata:
    encoder         : Lavf60.16.100
  Duration: 00:00:03.19, start: 0.025057, bitrate: 64 kb/s
  Stream #4:0: Audio: mp3, 44100 Hz, mono, fltp, 64 kb/s
Input #5, mp3, from 'C:\Users\fullm\Downloads\dubverse-saas\tmp\uploads\efb40add-9573-4c8c-b00a-c86a73167380\segments\seg_4.mp3':
  Metadata:
    encoder         : Lavf60.16.100
  Duration: 00:00:04.62, start: 0.025057, bitrate: 64 kb/s
  Stream #5:0: Audio: mp3, 44100 Hz, mono, fltp, 64 kb/s
Input #6, mp3, from 'C:\Users\fullm\Downloads\dubverse-saas\tmp\uploads\efb40add-9573-4c8c-b00a-c86a73167380\segments\seg_5.mp3':
  Metadata:
    encoder         : Lavf60.16.100
  Duration: 00:00:02.35, start: 0.025057, bitrate: 64 kb/s
  Stream #6:0: Audio: mp3, 44100 Hz, mono, fltp, 64 kb/s
Stream mapping:
  Stream #0:0 (mp3float) -> aformat:default
  Stream #1:0 (mp3float) -> aformat:default
  Stream #2:0 (mp3float) -> aformat:default
  Stream #3:0 (mp3float) -> aformat:default
[2026-03-03T20:18:14.710Z] FFmpeg Err: 
  Stream #4:0 (mp3float) -> aformat:default
  Stream #5:0 (mp3float) -> aformat:default
  Stream #6:0 (mp3float) -> aformat:default
  loudnorm:default -> Stream #0:0 (libmp3lame)

[2026-03-03T20:18:14.790Z] FFmpeg Err: Output #0, mp3, to 'C:\Users\fullm\Downloads\dubverse-saas\tmp\uploads\efb40add-9573-4c8c-b00a-c86a73167380\dubbed_audio.mp3':
  Metadata:
    major_brand     : mp42
    minor_version   : 0
    compatible_brands: isommp42
    TSSE            : Lavf60.16.100
  Stream #0:0: Audio: mp3, 44100 Hz, stereo, fltp, 192 kb/s
    Metadata:
      encoder         : Lavc60.31.102 libmp3lame

[2026-03-03T20:18:14.793Z] FFmpeg Err: size=       0kB time=-00:00:00.02 bitrate=  -0.0kbits/s speed=N/A    
[2026-03-03T20:18:15.262Z] FFmpeg Err: size=     158kB time=00:00:06.68 bitrate= 193.6kbits/s speed=12.1x    
[2026-03-03T20:18:15.789Z] FFmpeg Err: size=     256kB time=00:00:15.27 bitrate= 137.3kbits/s speed=14.1x    
[2026-03-03T20:18:15.791Z] FFmpeg Err: [out#0/mp3 @ 0000021f0f67f1c0] video:0kB audio:359kB subtitle:0kB other streams:0kB global headers:0kB muxing overhead: 0.207601%
size=     360kB time=00:00:15.38 bitrate= 191.8kbits/s speed=14.2x    

[2026-03-03T20:18:17.913Z] Running FFmpeg: C:\Users\fullm\Downloads\dubverse-saas\backend\node_modules\ffmpeg-static\ffmpeg.exe -i C:\Users\fullm\Downloads\dubverse-saas\tmp\uploads\efb40add-9573-4c8c-b00a-c86a73167380\video.mp4 -i C:\Users\fullm\Downloads\dubverse-saas\tmp\uploads\efb40add-9573-4c8c-b00a-c86a73167380\dubbed_audio.mp3 -map 0:v:0 -map 1:a:0 -c:v copy -c:a aac -b:a 192k -shortest -y C:\Users\fullm\Downloads\dubverse-saas\tmp\uploads\efb40add-9573-4c8c-b00a-c86a73167380\final_dubbed.mp4
[2026-03-03T20:18:17.996Z] FFmpeg Err: Input #0, mov,mp4,m4a,3gp,3g2,mj2, from 'C:\Users\fullm\Downloads\dubverse-saas\tmp\uploads\efb40add-9573-4c8c-b00a-c86a73167380\video.mp4':
  Metadata:
    major_brand     : mp42
    minor_version   : 0
    compatible_brands: isommp42
    creation_time   : 2022-10-02T15:04:51.000000Z
  Duration: 00:00:15.30, start: 0.000000, bitrate: 410 kb/s
  Stream #0:0[0x1](und): Video: h264 (Main) (avc1 / 0x31637661), yuv420p(tv, bt709, progressive), 360x640 [SAR 1:1 DAR 9:16], 278 kb/s, 30 fps, 30 tbr, 15360 tbn (default)
    Metadata:
      creation_time   : 2022-10-02T15:04:51.000000Z
      handler_name    : ISO Media file produced by Google Inc. Created on: 10/02/2022.
      vendor_id       : [0][0][0][0]
  Stream #0:1[0x2](eng): Audio: aac (LC) (mp4a / 0x6134706D), 44100 Hz, stereo, fltp, 127 kb/s (default)
    Metadata:
      creation_time   : 2022-10-02T15:04:51.000000Z
      handler_name    : ISO Media file produced by Google Inc. Created on: 10/02/2022.
      vendor_id       : [0][0][0][0]

[2026-03-03T20:18:18.000Z] FFmpeg Err: Input #1, mp3, from 'C:\Users\fullm\Downloads\dubverse-saas\tmp\uploads\efb40add-9573-4c8c-b00a-c86a73167380\dubbed_audio.mp3':
  Metadata:
    major_brand     : mp42
    minor_version   : 0
    compatible_brands: isommp42
    encoder         : Lavf60.16.100
  Duration: 00:00:15.33, start: 0.025057, bitrate: 192 kb/s
  Stream #1:0: Audio: mp3, 44100 Hz, stereo, fltp, 192 kb/s
    Metadata:
      encoder         : Lavc60.31
Stream mapping:
  Stream #0:0 -> #0:0 (copy)
  Stream #1:0 -> #0:1 (mp3 (mp3float) -> aac (native))

[2026-03-03T20:18:18.008Z] FFmpeg Err: Output #0, mp4, to 'C:\Users\fullm\Downloads\dubverse-saas\tmp\uploads\efb40add-9573-4c8c-b00a-c86a73167380\final_dubbed.mp4':
  Metadata:
    major_brand     : mp42
    minor_version   : 0
    compatible_brands: isommp42
    encoder         : Lavf60.16.100
  Stream #0:0(und): Video: h264 (Main) (avc1 / 0x31637661), yuv420p(tv, bt709, progressive), 360x640 [SAR 1:1 DAR 9:16], q=2-31, 278 kb/s, 
[2026-03-03T20:18:18.010Z] FFmpeg Err: 30 fps, 30 tbr, 15360 tbn (default)
    Metadata:
      creation_time   : 2022-10-02T15:04:51.000000Z
      handler_name    : ISO Media file produced by Google Inc. Created on: 10/02/2022.
      vendor_id       : [0][0][0][0]
  Stream #0:1: Audio: aac (LC) (mp4a / 0x6134706D), 44100 Hz, stereo, fltp, 192 kb/s
    Metadata:
      encoder         : Lavc60.31.102 aac
size=       0kB time=N/A bitrate=N/A speed=N/A    
[2026-03-03T20:18:18.500Z] FFmpeg Err: size=     256kB time=00:00:07.83 bitrate= 267.8kbits/s speed=15.7x    
[2026-03-03T20:18:19.000Z] FFmpeg Err: size=     768kB time=00:00:15.10 bitrate= 416.7kbits/s speed=15.1x    
[2026-03-03T20:18:19.023Z] FFmpeg Err: [out#0/mp4 @ 000001d17f97be00] video:520kB audio:362kB subtitle:0kB other streams:0kB global headers:0kB muxing overhead: 1.765168%
size=     898kB time=00:00:15.27 bitrate= 481.3kbits/s speed=14.9x    

[2026-03-03T20:18:19.026Z] FFmpeg Err: [aac @ 000001d17f7ee940] Qavg: 1143.971

[2026-03-03T20:18:21.170Z] ✅ Pipeline finished successfully!
